<svg width="32" height="32" viewBox="0 0 32 32" fill="none" xmlns="http://www.w3.org/2000/svg">
<g clip-path="url(#clip0_2919_4114)">
<path d="M16 16.1367V28.9967" stroke="black" stroke-width="2" stroke-linecap="round" stroke-linejoin="round"/>
<path d="M4.08594 9.61523L15.9984 16.1352L27.9109 9.61523" stroke="black" stroke-width="2" stroke-linecap="round" stroke-linejoin="round"/>
<path d="M27.48 22.8547L16.48 28.8772C16.3328 28.9577 16.1678 28.9999 16 28.9999C15.8322 28.9999 15.6672 28.9577 15.52 28.8772L4.52 22.8547C4.36293 22.7687 4.23181 22.6422 4.14035 22.4883C4.04888 22.3344 4.00041 22.1587 4 21.9797V10.0222C4.00041 9.84314 4.04888 9.66749 4.14035 9.51357C4.23181 9.35966 4.36293 9.23312 4.52 9.14718L15.52 3.12468C15.6672 3.04416 15.8322 3.00195 16 3.00195C16.1678 3.00195 16.3328 3.04416 16.48 3.12468L27.48 9.14718C27.6371 9.23312 27.7682 9.35966 27.8597 9.51357C27.9511 9.66749 27.9996 9.84314 28 10.0222V21.9772C28 22.1567 27.9518 22.3328 27.8603 22.4872C27.7688 22.6416 27.6374 22.7685 27.48 22.8547Z" stroke="black" stroke-width="2" stroke-linecap="round" stroke-linejoin="round"/>
<path d="M10.1953 6.03906L22.0003 12.5003V19.0003" stroke="black" stroke-width="2" stroke-linecap="round" stroke-linejoin="round"/>
</g>
<defs>
<clipPath id="clip0_2919_4114">
<rect width="32" height="32" fill="white"/>
</clipPath>
</defs>
</svg>
