<svg width="76" height="23" viewBox="0 0 76 23" fill="none" xmlns="http://www.w3.org/2000/svg">
<g clip-path="url(#clip0_997_1432)">
<path fill-rule="evenodd" clip-rule="evenodd" d="M46.575 17.3952C42.2135 20.5537 35.8927 22.2437 30.4427 22.2437C22.8082 22.2437 15.9394 19.4689 10.7371 14.8491C10.3318 14.4875 10.6921 13.9931 11.1876 14.2735C16.7952 17.4837 23.7391 19.4098 30.9006 19.4098C35.7351 19.4098 41.05 18.4283 45.9369 16.3841C46.6801 16.0816 47.2957 16.8638 46.575 17.3952Z" fill="white"/>
<path fill-rule="evenodd" clip-rule="evenodd" d="M48.3817 15.3509C47.8262 14.6498 44.6958 15.0188 43.292 15.1812C42.8641 15.2328 42.7965 14.8638 43.1869 14.6055C45.6792 12.8787 49.7704 13.3805 50.2509 13.9561C50.7313 14.5391 50.1233 18.5685 47.7811 20.4946C47.4208 20.7898 47.0755 20.6348 47.2406 20.2437C47.7661 18.9522 48.9447 16.0594 48.3817 15.3509Z" fill="white"/>
<path fill-rule="evenodd" clip-rule="evenodd" d="M43.3915 2.42886V0.753655C43.3915 0.502743 43.5866 0.333008 43.8193 0.333008H51.4539C51.7016 0.333008 51.8968 0.510122 51.8968 0.753655V2.19271C51.8968 2.43624 51.6866 2.74619 51.3187 3.24802L47.3701 8.7976C48.8415 8.76071 50.3954 8.97472 51.7241 9.7127C52.0244 9.88243 52.107 10.126 52.1295 10.3621V12.148C52.1295 12.3916 51.8517 12.6794 51.5665 12.5318C49.2168 11.3215 46.0939 11.1887 43.4966 12.5465C43.2338 12.6867 42.9561 12.4063 42.9561 12.1628V10.4654C42.9561 10.1924 42.9561 9.72746 43.2338 9.31419L47.8205 2.84951H43.8344C43.5866 2.84951 43.3915 2.67977 43.3915 2.42886Z" fill="white"/>
<path fill-rule="evenodd" clip-rule="evenodd" d="M15.5323 12.8935H13.2127C12.9875 12.8788 12.8148 12.7164 12.7998 12.5024V0.78332C12.7998 0.547167 13.0025 0.362673 13.2502 0.362673H15.4197C15.6449 0.370053 15.8251 0.539787 15.8401 0.753801V2.28879H15.8851C16.4482 0.805459 17.5141 0.119141 18.9404 0.119141C20.3968 0.119141 21.3051 0.812839 21.9582 2.28879C22.5212 0.805459 23.7974 0.119141 25.1636 0.119141C26.1395 0.119141 27.2055 0.517648 27.8511 1.40322C28.5868 2.39211 28.4367 3.82379 28.4367 5.07835V12.4729C28.4367 12.709 28.234 12.8935 27.9862 12.8935H25.6666C25.4339 12.8788 25.2462 12.6943 25.2462 12.4729V6.25911C25.2462 5.76467 25.2913 4.53224 25.1787 4.05994C25.006 3.2703 24.488 3.04891 23.8124 3.04891C23.2494 3.04891 22.6639 3.4179 22.4236 4.00828C22.1834 4.59866 22.2059 5.58755 22.2059 6.25173V12.4655C22.2059 12.7016 22.0032 12.8861 21.7555 12.8861H19.4434C19.2107 12.8714 19.023 12.6869 19.023 12.4655V6.25173C19.023 4.94551 19.2407 3.01939 17.5892 3.01939C15.9227 3.01939 15.9827 4.89385 15.9827 6.25173V12.4655C15.9827 12.7016 15.78 12.8935 15.5323 12.8935Z" fill="white"/>
<path fill-rule="evenodd" clip-rule="evenodd" d="M58.4782 0.111328C61.9239 0.111328 63.7931 3.01896 63.7931 6.7236C63.7931 10.2954 61.7287 13.1366 58.4782 13.1366C55.0926 13.1366 53.2534 10.229 53.2534 6.59815C53.2459 2.95254 55.1151 0.111328 58.4782 0.111328ZM58.4932 2.50975C56.7817 2.50975 56.6766 4.79748 56.6766 6.22916C56.6766 7.66083 56.6541 10.7234 58.4782 10.7234C60.2799 10.7234 60.3625 8.25859 60.3625 6.75312C60.3625 5.76423 60.3174 4.58347 60.0171 3.64624C59.7544 2.82708 59.2364 2.50975 58.4932 2.50975Z" fill="white"/>
<path fill-rule="evenodd" clip-rule="evenodd" d="M68.2628 12.8931H65.9507C65.7179 12.8783 65.5303 12.6938 65.5303 12.4724V0.745988C65.5528 0.531975 65.7405 0.36224 65.9807 0.36224H68.1352C68.3378 0.36962 68.503 0.509836 68.548 0.68695V2.48023H68.5931C69.2462 0.878824 70.1545 0.111328 71.761 0.111328C72.8044 0.111328 73.8179 0.480317 74.471 1.49135C75.079 2.42858 75.079 4.00785 75.079 5.13695V12.5167C75.0565 12.7234 74.8613 12.8857 74.6286 12.8857H72.3015C72.0913 12.871 71.9111 12.716 71.8886 12.5167V6.15536C71.8886 4.87128 72.0387 2.99682 70.4323 2.99682C69.8693 2.99682 69.3438 3.36581 69.0885 3.93405C68.7582 4.64989 68.7207 5.36572 68.7207 6.15536V12.4651C68.7132 12.7012 68.5105 12.8931 68.2628 12.8931Z" fill="white"/>
<path fill-rule="evenodd" clip-rule="evenodd" d="M37.3023 7.29121C37.3023 8.18417 37.3249 8.92214 36.8669 9.71178C36.4991 10.3538 35.9061 10.7523 35.2605 10.7523C34.3671 10.7523 33.8492 10.0808 33.8492 9.09926C33.8492 7.151 35.6208 6.79677 37.3098 6.79677L37.3023 7.29121ZM39.6445 12.8556C39.4943 12.9884 39.2691 13.0032 39.0965 12.9072C38.3233 12.2799 38.1881 11.9847 37.7603 11.387C36.4841 12.6637 35.5833 13.0474 33.9317 13.0474C31.9724 13.0474 30.4561 11.8593 30.4561 9.49039C30.4561 7.63806 31.477 6.37612 32.9333 5.75622C34.1945 5.21012 35.9586 5.11418 37.3023 4.95921V4.66402C37.3023 4.11791 37.3474 3.47587 37.0171 3.01095C36.7393 2.5903 36.1913 2.41319 35.7109 2.41319C34.8251 2.41319 34.0368 2.86335 33.8417 3.78582C33.8041 3.99246 33.6465 4.19171 33.4363 4.20647L31.1842 3.97032C30.9965 3.92604 30.7788 3.77844 30.8389 3.49063C31.3644 0.811775 33.8342 0 36.0412 0C37.1747 0 38.6461 0.295191 39.5394 1.13648C40.6729 2.17703 40.5603 3.55705 40.5603 5.06252V8.61957C40.5603 9.68964 41.0107 10.1619 41.4386 10.7376C41.5888 10.9442 41.6188 11.1877 41.4311 11.3427C40.9582 11.7412 40.1174 12.4644 39.6445 12.8556Z" fill="white"/>
<path fill-rule="evenodd" clip-rule="evenodd" d="M6.84628 7.29121C6.84628 8.18417 6.8688 8.92214 6.41088 9.71178C6.04304 10.3538 5.45751 10.7523 4.80441 10.7523C3.91109 10.7523 3.39311 10.0808 3.39311 9.09926C3.39311 7.151 5.16474 6.79677 6.84628 6.79677V7.29121ZM9.18843 12.8556C9.03829 12.9884 8.81309 13.0032 8.64043 12.9072C7.86722 12.2799 7.73209 11.9847 7.3042 11.387C6.02803 12.6637 5.1272 13.0474 3.47569 13.0474C1.5239 13.0474 0 11.8593 0 9.49039C0 7.63806 1.02094 6.37612 2.47727 5.75622C3.73843 5.21012 5.50255 5.11418 6.84628 4.95921V4.66402C6.84628 4.11791 6.89132 3.47587 6.56853 3.01095C6.28327 2.5903 5.74277 2.41319 5.26233 2.41319C4.37652 2.41319 3.58829 2.86335 3.39311 3.78582C3.35558 3.99246 3.19793 4.19171 2.98774 4.20647L0.735675 3.97032C0.548003 3.92604 0.33781 3.77844 0.390358 3.49063C0.908333 0.811775 3.3781 0 5.58512 0C6.71866 0 8.19001 0.295191 9.08333 1.13648C10.2169 2.17703 10.1043 3.55705 10.1043 5.06252V8.61957C10.1043 9.68964 10.5547 10.1619 10.9826 10.7376C11.1327 10.9442 11.1627 11.1877 10.9751 11.3427C10.5021 11.7412 9.66136 12.4644 9.18843 12.8556Z" fill="white"/>
</g>
<defs>
<clipPath id="clip0_997_1432">
<rect width="75.0689" height="22.2426" fill="white"/>
</clipPath>
</defs>
</svg>
