<svg width="90" height="26" viewBox="0 0 90 26" fill="none" xmlns="http://www.w3.org/2000/svg">
<path d="M8.80214 25.2673C8.78545 25.256 8.76707 25.2404 8.7477 25.2239C8.4349 24.8467 6.50056 22.4882 4.5296 19.4632C3.93842 18.4993 3.55454 17.7476 3.62825 17.5532C3.82107 17.0477 7.25714 16.7711 8.31534 17.2293C8.63714 17.3684 8.62903 17.5525 8.62903 17.6598C8.62903 18.1225 8.60549 19.3641 8.60549 19.3641C8.60571 19.6207 8.82003 19.8287 9.08391 19.8283C9.34824 19.8283 9.56168 19.6194 9.5608 19.3622L9.55578 16.2684H9.55491C9.55491 15.9999 9.25373 15.9328 9.19713 15.9223C8.64478 15.9191 7.5232 15.9158 6.3189 15.9158C3.66155 15.9158 3.06773 16.022 2.61629 15.7347C1.63814 15.1122 0.0388062 10.9165 0.00150713 8.55588C-0.0515865 5.22562 1.97576 2.34247 4.83053 0.913933C6.02319 0.329441 7.37028 0 8.79307 0C13.3115 0 17.0325 3.3194 17.5276 7.59008C17.5281 7.59333 17.5281 7.59818 17.5289 7.60143C17.6198 8.6339 11.7733 8.85328 10.6169 8.55291C10.4396 8.50675 10.3942 8.33012 10.3942 8.25406C10.3929 7.46898 10.3875 5.25959 10.3875 5.25959C10.3866 5.00282 10.1723 4.79456 9.90845 4.79521H9.90799C9.64454 4.79563 9.43067 5.00432 9.43067 5.26153L9.44068 9.3314C9.44903 9.58775 9.66993 9.65694 9.73047 9.66848C10.3881 9.66869 11.9261 9.66719 13.3585 9.66719C15.2946 9.66719 16.1077 9.88557 16.6489 10.2865C17.0087 10.5536 17.148 11.0648 17.0262 11.7292C15.9406 17.6395 9.06162 24.9618 8.80321 25.267L8.80214 25.2673ZM27.4586 11.4733C29.1942 12.1973 30.2695 13.0006 30.2695 14.7637C30.2695 16.5648 28.8678 17.7282 26.6989 17.7282C24.9414 17.7282 23.5307 16.9534 22.8281 15.6019L22.7144 15.384L24.7808 14.2187L24.9162 14.434C25.3814 15.1743 25.9015 15.4898 26.6561 15.4898C27.3065 15.4898 27.7435 15.2093 27.7435 14.7914C27.7435 14.3285 27.4272 14.155 26.4495 13.7385L25.9526 13.531C24.6266 12.9809 23.3982 12.2166 23.3982 10.3653C23.3982 8.70151 24.7084 7.53959 26.5846 7.53959C28.0061 7.53959 28.9803 8.07516 29.6509 9.22448L29.7752 9.43788L27.7731 10.6902L27.6352 10.4499C27.3005 9.86708 26.9853 9.75021 26.5847 9.75021C26.1659 9.75021 25.8961 9.97494 25.8961 10.3236C25.8961 10.7241 26.0949 10.8999 26.9611 11.2652L27.4586 11.4733ZM42.0851 11.8142L43.5439 7.85524H46.0477L42.337 17.8916H41.7809L39.53 13.1913C39.4253 12.976 39.3174 12.7085 39.2244 12.4634C39.1293 12.7089 39.0187 12.977 38.9138 13.1923L36.575 17.8916H36.0226L32.2525 7.85524H34.9271L36.4019 11.8142C36.4961 12.0667 36.5925 12.3746 36.677 12.6602C36.7772 12.3654 36.8977 12.0471 37.0236 11.7905L38.9605 7.77257H39.4964L41.4635 11.7909C41.5888 12.0473 41.7098 12.3658 41.8096 12.6606C41.8944 12.3746 41.9917 12.0667 42.0851 11.8142ZM48.9675 17.6034V7.65018H51.4946V17.6034H48.9675ZM59.7802 14.2593V12.035H64.4725V16.4958L64.3755 16.5736C63.8387 17.0026 62.4155 17.7283 60.4875 17.7283C57.2351 17.7283 54.9645 15.6307 54.9645 12.6272C54.9645 9.67938 57.1555 7.53964 60.1743 7.53964C61.8344 7.53964 63.0512 7.9951 63.8936 8.93229L64.058 9.11538L62.3356 10.7751L62.1485 10.5875C61.6674 10.1047 61.169 9.8056 60.1742 9.8056C58.6279 9.8056 57.5478 10.9658 57.5478 12.6272C57.5478 14.3578 58.7012 15.4764 60.4875 15.4764C61.08 15.4764 61.6968 15.3771 62.1167 15.2183V14.2594L59.7802 14.2593ZM72.5863 14.2593V12.035H77.2786V16.4958L77.1816 16.5736C76.6444 17.0026 75.2216 17.7283 73.2941 17.7283C70.0416 17.7283 67.7706 15.6307 67.7706 12.6272C67.7706 9.67938 69.962 7.53964 72.98 7.53964C74.641 7.53964 75.8577 7.9951 76.6997 8.93229L76.8646 9.11538L75.1426 10.7751L74.9551 10.5875C74.4738 10.1047 73.9752 9.8056 72.9799 9.8056C71.4341 9.8056 70.354 10.9658 70.354 12.6272C70.354 14.3578 71.5078 15.4764 73.2941 15.4764C73.8866 15.4764 74.503 15.3771 74.9228 15.2183V14.2594L72.5863 14.2593ZM86.538 7.65023H89.1793L85.554 14.2734V17.6034H83.0133V14.4148L79.1512 7.65023H81.9696L83.7545 10.8237C83.9465 11.1689 84.147 11.6252 84.2985 11.9957C84.4433 11.6282 84.6348 11.176 84.8254 10.8267L86.538 7.65023Z" fill="white"/>
</svg>
