<svg width="154" height="78" viewBox="0 0 154 78" fill="none" xmlns="http://www.w3.org/2000/svg">
<rect x="0.046875" y="0.804688" width="153.602" height="76.8" fill="white"/>
<rect x="0.546875" y="1.30469" width="152.602" height="75.8" stroke="#030A21" stroke-opacity="0.1"/>
<g clip-path="url(#clip0_1008_56368)">
<path d="M62.0736 39.7495V48.9154C62.0736 49.2119 61.8381 49.4589 61.5555 49.4589H57.7876C57.505 49.4589 57.2695 49.2119 57.2695 48.9154V34.4378C57.2695 34.1413 57.505 33.8942 57.7876 33.8942H61.5555C61.8381 33.8942 62.0736 34.1413 62.0736 34.4378V35.5742C63.0156 34.3389 64.3579 33.5483 66.2183 33.5483C67.961 33.5483 69.4917 34.2895 70.4101 35.6978C71.5405 34.2895 73.1418 33.5483 75.0964 33.5483C78.4169 33.5483 80.7012 35.5989 80.7012 39.5272V48.9154C80.7012 49.2119 80.4657 49.4589 80.1831 49.4589H76.4152C76.1326 49.4589 75.8971 49.2119 75.8971 48.9154V40.5895C75.8971 38.8848 74.9787 38.0448 73.7306 38.0448C72.6944 38.0448 71.8702 38.7366 71.3756 39.7495V48.9154C71.3756 49.2119 71.1401 49.4589 70.8575 49.4589H67.0896C66.807 49.4589 66.5715 49.2119 66.5715 48.9154V40.5895C66.5715 38.8848 65.6531 38.0448 64.405 38.0448C63.3453 38.0448 62.5446 38.7366 62.0736 39.7495Z" fill="black"/>
<path d="M87.0127 49.7801C84.2338 49.7801 81.8789 47.853 81.8789 44.8636C81.8789 42.1213 83.598 40.8613 86.8007 39.9719L90.8983 38.8601C90.7806 37.8225 90.0035 37.3283 88.7553 37.3283C87.6485 37.3283 86.8478 37.773 86.4946 38.6625C86.4004 38.9095 86.1413 39.0577 85.9059 38.9836L82.656 38.1683C82.3499 38.0942 82.185 37.7483 82.2792 37.4519C83.2212 34.8083 85.7881 33.4248 88.9202 33.4248C93.1355 33.4248 95.5611 35.5001 95.5611 39.1813V48.9154C95.5611 49.2119 95.3256 49.4589 95.043 49.4589H91.4871C91.2045 49.4589 90.969 49.2366 90.969 48.9401L90.9454 48.1248L90.9219 48.1495C89.6973 49.2366 88.5198 49.7801 87.0127 49.7801ZM88.2137 45.8766C88.826 45.8766 89.3205 45.6789 90.027 45.2589L90.8512 44.7401L90.8748 42.2201L88.7318 42.8377C87.2717 43.2825 86.6359 43.653 86.6359 44.5177C86.6359 45.4813 87.4366 45.8766 88.2137 45.8766Z" fill="black"/>
<path d="M103.24 42.1212L101.78 43.5294V48.94C101.78 49.2365 101.545 49.4835 101.262 49.4835H97.565C97.2824 49.4835 97.0469 49.2365 97.0469 48.94V29.3482C97.0469 29.0517 97.2824 28.8047 97.565 28.8047H101.262C101.545 28.8047 101.78 29.0517 101.78 29.3482V38.1929L106.09 34.0423C106.184 33.9435 106.302 33.8941 106.443 33.8941H110.988C111.459 33.8941 111.671 34.5117 111.341 34.8329L106.914 39.0576L111.954 48.6435C112.142 49.0141 111.883 49.4341 111.506 49.4341H107.197C107.008 49.4341 106.82 49.3106 106.749 49.1376L103.24 42.1212Z" fill="black"/>
<path d="M118.877 49.8047C114.756 49.8047 110.988 47.0871 110.988 41.6271C110.988 36.4635 114.615 33.4741 118.571 33.4741C122.527 33.4741 125.683 36.4882 125.801 41.2565C125.824 41.7506 125.824 42.1212 125.824 42.3682C125.824 42.6647 125.589 42.9118 125.306 42.9118H115.745C115.887 44.7894 117.323 45.9506 119.136 45.9506C120.432 45.9506 121.468 45.3824 122.221 44.3694C122.386 44.1471 122.692 44.0977 122.904 44.2459L125.306 45.9259C125.542 46.0988 125.612 46.4447 125.448 46.6918C124.152 48.6682 122.033 49.8047 118.877 49.8047ZM115.839 39.8482H121.02C120.997 38.0694 119.749 37.3035 118.43 37.3035C117.229 37.3035 115.981 38.0447 115.839 39.8482Z" fill="black"/>
<mask id="mask0_1008_56368" style="mask-type:luminance" maskUnits="userSpaceOnUse" x="45" y="33" width="6" height="17">
<path d="M45.9907 33.9189H49.7115C49.9941 33.9189 50.2296 34.166 50.2296 34.4625V48.8907C50.2296 49.1872 49.9941 49.4342 49.7115 49.4342H45.9907C45.7082 49.4342 45.4727 49.1872 45.4727 48.8907V34.4625C45.4727 34.166 45.7082 33.9189 45.9907 33.9189Z" fill="white"/>
</mask>
<g mask="url(#mask0_1008_56368)">
<path d="M40.6914 35.7721L49.6637 32.2886L55.033 47.5568L46.0607 51.0403L40.6914 35.7721Z" fill="url(#paint0_linear_1008_56368)"/>
</g>
<mask id="mask1_1008_56368" style="mask-type:luminance" maskUnits="userSpaceOnUse" x="28" y="33" width="12" height="17">
<path d="M35.0638 34.1166L28.8939 46.9884C28.7761 47.2601 28.8703 47.5813 29.1294 47.7048L32.4498 49.4589C32.7089 49.5825 33.015 49.4836 33.1328 49.2119L39.3027 36.3154C39.4205 36.0436 39.3263 35.7225 39.0672 35.5989L35.7467 33.8448C35.6761 33.7954 35.6055 33.7954 35.5113 33.7954C35.3464 33.8201 35.158 33.9189 35.0638 34.1166Z" fill="white"/>
</mask>
<g mask="url(#mask1_1008_56368)">
<path d="M23.2891 36.2907L37.7719 29.7437L44.931 47.1119L30.4481 53.6836L23.2891 36.2907Z" fill="url(#paint1_linear_1008_56368)"/>
</g>
<mask id="mask2_1008_56368" style="mask-type:luminance" maskUnits="userSpaceOnUse" x="37" y="33" width="8" height="17">
<path d="M40.2666 34.166L37.6291 48.1989C37.582 48.4954 37.7468 48.7672 38.0294 48.8413L41.6796 49.6072C41.9622 49.6566 42.2212 49.4836 42.2919 49.1872L44.9294 35.1542C44.9765 34.8578 44.8116 34.586 44.5291 34.5119L40.8789 33.746C40.8553 33.746 40.8082 33.746 40.7847 33.746C40.5257 33.7213 40.3137 33.8942 40.2666 34.166Z" fill="white"/>
</mask>
<g mask="url(#mask2_1008_56368)">
<path d="M32.6367 35.6235L44.1053 31.2012L49.8984 47.7541L38.4534 52.1765L32.6367 35.6235Z" fill="url(#paint2_linear_1008_56368)"/>
</g>
</g>
<defs>
<linearGradient id="paint0_linear_1008_56368" x1="40.8469" y1="44.3862" x2="51.007" y2="40.8154" gradientUnits="userSpaceOnUse">
<stop stop-color="#B02DE9"/>
<stop offset="0.02" stop-color="#B02DE9"/>
<stop offset="0.8" stop-color="#6D00CC"/>
<stop offset="1" stop-color="#6D00CC"/>
</linearGradient>
<linearGradient id="paint1_linear_1008_56368" x1="32.0791" y1="42.6325" x2="43.0392" y2="38.1159" gradientUnits="userSpaceOnUse">
<stop stop-color="#FF00FF"/>
<stop offset="0.17" stop-color="#E90CF9"/>
<stop offset="0.54" stop-color="#C023ED"/>
<stop offset="0.73" stop-color="#B02DE9"/>
<stop offset="1" stop-color="#B02DE9"/>
</linearGradient>
<linearGradient id="paint2_linear_1008_56368" x1="29.5797" y1="46.2135" x2="51.9678" y2="38.3576" gradientUnits="userSpaceOnUse">
<stop stop-color="#FF00FF"/>
<stop offset="0.02" stop-color="#FF00FF"/>
<stop offset="0.09" stop-color="#E90CF9"/>
<stop offset="0.23" stop-color="#C023ED"/>
<stop offset="0.3" stop-color="#B02DE9"/>
<stop offset="0.42" stop-color="#A42BE3"/>
<stop offset="0.63" stop-color="#8626D5"/>
<stop offset="0.85" stop-color="#6021C3"/>
<stop offset="1" stop-color="#6021C3"/>
</linearGradient>
<clipPath id="clip0_1008_56368">
<rect width="97" height="21" fill="white" transform="translate(28.8477 28.8047)"/>
</clipPath>
</defs>
</svg>
